# Made in Blockbench 5.0.4
mtllib materials.mtl

o Тело
v 0.375 1.03125 0.6875
v 0.375 1.03125 -0.6875
v 0.375 0.34375 0.6875
v 0.375 0.34375 -0.6875
v -0.375 1.03125 0.6875
v -0.375 1.03125 -0.6875
v -0.375 0.34375 0.6875
v -0.375 0.34375 -0.6875
vt 0.34375 0.640625
vt 0 0.640625
vt 0 0.46875
vt 0.34375 0.46875
vt 0.703125 0.46875
vt 0.703125 0.640625
vt 0.359375 0.640625
vt 0.359375 0.46875
vt 0 0.65625
vt 0.1875 0.65625
vt 0.1875 1
vt 0 1
vt 0.390625 0.65625
vt 0.390625 1
vt 0.203125 1
vt 0.203125 0.65625
vt 0.59375 0.828125
vt 0.59375 1
vt 0.40625 1
vt 0.40625 0.828125
vt 0.1875 0.453125
vt 0 0.453125
vt 0 0.28125
vt 0.1875 0.28125
vn 1 0 0
vn -1 0 0
vn 0 1 0
vn 0 -1 0
vn 0 0 1
vn 0 0 -1
usemtl m_1e87a6fd-d098-c2cf-d2f8-d04f9f756bfc
f 2/1/1 1/2/1 3/3/1 4/4/1
f 7/5/2 5/6/2 6/7/2 8/8/2
f 5/9/3 1/10/3 2/11/3 6/12/3
f 4/13/4 3/14/4 7/15/4 8/16/4
f 3/17/5 1/18/5 5/19/5 7/20/5
f 6/21/6 2/22/6 4/23/6 8/24/6
o cuboid
v 1.373485526796931 1.0328125 0.5554593345768795
v 1.3653276397831777 1.0328125 0.4934940307410163
v 1.373485526796931 0.34374999999999994 0.5554593345768795
v 1.3653276397831777 0.34374999999999994 0.4934940307410163
v 0.3820406654231206 1.0328125 0.685985526796931
v 0.37388277840936734 1.0328125 0.6240202229610678
v 0.3820406654231206 0.34374999999999994 0.685985526796931
v 0.37388277840936734 0.34374999999999994 0.6240202229610678
vt 0.078125 0.5625
vt 0.0625 0.5625
vt 0.0625 0.390625
vt 0.078125 0.390625
vt 0.109375 0.390625
vt 0.109375 0.5625
vt 0.09375 0.5625
vt 0.09375 0.390625
vt 0 0.578125
vt 0.25 0.578125
vt 0.25 0.59375
vt 0 0.59375
vt 0.515625 0.578125
vt 0.515625 0.59375
vt 0.265625 0.59375
vt 0.265625 0.578125
vt 0.515625 0.828125
vt 0.515625 1
vt 0.265625 1
vt 0.265625 0.828125
vt 0.515625 0.8125
vt 0.265625 0.8125
vt 0.265625 0.640625
vt 0.515625 0.640625
vn 0.9914448613738104 0 -0.13052619222005157
vn -0.9914448613738104 0 0.13052619222005157
vn 0 1 0
vn 0 -1 0
vn 0.13052619222005157 0 0.9914448613738104
vn -0.13052619222005157 0 -0.9914448613738104
usemtl m_229c9532-b757-de8b-14ce-df0c6de18fb2
f 10/25/7 9/26/7 11/27/7 12/28/7
f 15/29/8 13/30/8 14/31/8 16/32/8
f 13/33/9 9/34/9 10/35/9 14/36/9
f 12/37/10 11/38/10 15/39/10 16/40/10
f 11/41/11 9/42/11 13/43/11 15/44/11
f 14/45/12 10/46/12 12/47/12 16/48/12
o cuboid
v -0.3820406654231206 1.0328125 0.685985526796931
v -0.37388277840936734 1.0328125 0.6240202229610678
v -0.3820406654231206 0.34374999999999994 0.685985526796931
v -0.37388277840936734 0.34374999999999994 0.6240202229610678
v -1.373485526796931 1.0328125 0.5554593345768795
v -1.3653276397831777 1.0328125 0.4934940307410163
v -1.373485526796931 0.34374999999999994 0.5554593345768795
v -1.3653276397831777 0.34374999999999994 0.4934940307410163
vt 0.015625 0.5625
vt 0 0.5625
vt 0 0.390625
vt 0.015625 0.390625
vt 0.046875 0.390625
vt 0.046875 0.5625
vt 0.03125 0.5625
vt 0.03125 0.390625
vt 0 0.609375
vt 0.25 0.609375
vt 0.25 0.625
vt 0 0.625
vt 0.515625 0.609375
vt 0.515625 0.625
vt 0.265625 0.625
vt 0.265625 0.609375
vt 0.25 0.828125
vt 0.25 1
vt 0 1
vt 0 0.828125
vt 0.25 0.8125
vt 0 0.8125
vt 0 0.640625
vt 0.25 0.640625
vn 0.9914448613738104 0 0.13052619222005157
vn -0.9914448613738104 0 -0.13052619222005157
vn 0 1 0
vn 0 -1 0
vn -0.13052619222005157 0 0.9914448613738104
vn 0.13052619222005157 0 -0.9914448613738104
usemtl m_229c9532-b757-de8b-14ce-df0c6de18fb2
f 18/49/13 17/50/13 19/51/13 20/52/13
f 23/53/14 21/54/14 22/55/14 24/56/14
f 21/57/15 17/58/15 18/59/15 22/60/15
f 20/61/16 19/62/16 23/63/16 24/64/16
f 19/65/17 17/66/17 21/67/17 23/68/17
f 22/69/18 18/70/18 20/71/18 24/72/18
o cylinder
v -0.26858946412172996 0.5115700026092121 -0.25
v -0.2619463895328684 0.5064725921940214 -0.21875000000000003
v -0.5366812400146599 0.21360933480381966 -0.21875000000000003
v -0.2504402468264904 0.49764361836788035 -0.2271234122634726
v -0.5251750973082818 0.20478036097767854 -0.2271234122634726
v -0.24379717223762887 0.49254620795268966 -0.24162658773652745
v -0.5185320227194203 0.19968295056248783 -0.24162658773652745
v -0.24379717223762887 0.49254620795268966 -0.2583734122634726
v -0.5185320227194203 0.19968295056248783 -0.2583734122634726
v -0.2504402468264904 0.49764361836788035 -0.27287658773652745
v -0.5251750973082818 0.20478036097767854 -0.27287658773652745
v -0.2619463895328684 0.5064725921940214 -0.28125
v -0.5366812400146599 0.21360933480381966 -0.28125
v -0.2752325387105915 0.5166674130244029 -0.28125
v -0.549967389192383 0.22380415563420109 -0.28125
v -0.28673868141696945 0.525496386850544 -0.27287658773652745
v -0.561473531898761 0.2326331294603422 -0.27287658773652745
v -0.29338175600583105 0.5305937972657346 -0.2583734122634726
v -0.5681166064876225 0.23773053987553286 -0.2583734122634726
v -0.29338175600583105 0.5305937972657346 -0.24162658773652745
v -0.5681166064876225 0.23773053987553286 -0.24162658773652745
v -0.28673868141696945 0.525496386850544 -0.2271234122634726
v -0.561473531898761 0.2326331294603422 -0.2271234122634726
v -0.2752325387105915 0.5166674130244029 -0.21875000000000003
v -0.549967389192383 0.22380415563420109 -0.21875000000000003
v -0.8684548869451693 -0.16477594147252222 -0.2453946232550901
v -0.8684548869451693 -0.16477594147252222 -0.25460537674490996
v -0.882090647481425 -0.15431285441143483 -0.25
v -0.8857443385052988 -0.15150927868307995 -0.2671875
v -0.8920727169938066 -0.14665334307870231 -0.2625821232550901
v -0.878436956457551 -0.1571164301397897 -0.2671875
v -0.8721085779690432 -0.16197236574416735 -0.2625821232550901
v -0.878436956457551 -0.1571164301397897 -0.23281250000000003
v -0.8721085779690432 -0.16197236574416735 -0.23741787674490994
v -0.8857443385052988 -0.15150927868307995 -0.23281250000000003
v -0.8920727169938066 -0.14665334307870231 -0.23741787674490994
v -0.8957264080176806 -0.14384976735034744 -0.25460537674490996
v -0.8957264080176806 -0.14384976735034744 -0.24539462325509012
vt 0.171875 0.734375
vt 0.140625 0.734375
vt 0.140625 0.703125
vt 0.234375 0.734375
vt 0.203125 0.734375
vt 0.203125 0.703125
vt 0.234375 0.703125
vt 0.296875 0.734375
vt 0.265625 0.734375
vt 0.265625 0.703125
vt 0.359375 0.734375
vt 0.328125 0.734375
vt 0.328125 0.703125
vt 0.421875 0.734375
vt 0.390625 0.734375
vt 0.390625 0.703125
vt 0.421875 0.703125
vt 0.484375 0.734375
vt 0.453125 0.734375
vt 0.453125 0.703125
vt 0.546875 0.734375
vt 0.515625 0.734375
vt 0.515625 0.703125
vt 0.609375 0.734375
vt 0.578125 0.734375
vt 0.578125 0.703125
vt 0.609375 0.703125
vt 0.671875 0.734375
vt 0.640625 0.734375
vt 0.640625 0.703125
vt 0.734375 0.734375
vt 0.703125 0.734375
vt 0.703125 0.703125
vt 0.796875 0.734375
vt 0.765625 0.734375
vt 0.765625 0.703125
vt 0.796875 0.703125
vt 0.859375 0.734375
vt 0.828125 0.734375
vt 0.828125 0.703125
vt 0.921875 0.734375
vt 0.890625 0.734375
vt 0.890625 0.703125
vt 0.984375 0.734375
vt 0.953125 0.734375
vt 0.953125 0.703125
vt 0.984375 0.703125
vt 0.046875 0.671875
vt 0.015625 0.671875
vt 0.015625 0.640625
vt 0.109375 0.671875
vt 0.078125 0.671875
vt 0.078125 0.640625
vt 0.171875 0.671875
vt 0.140625 0.671875
vt 0.140625 0.640625
vt 0.171875 0.640625
vt 0.234375 0.671875
vt 0.203125 0.671875
vt 0.203125 0.640625
vt 0.296875 0.671875
vt 0.265625 0.671875
vt 0.265625 0.640625
vt 0.359375 0.671875
vt 0.328125 0.671875
vt 0.328125 0.640625
vt 0.359375 0.640625
vt 0.421875 0.671875
vt 0.390625 0.671875
vt 0.390625 0.640625
vt 0.484375 0.671875
vt 0.453125 0.671875
vt 0.453125 0.640625
vt 0.546875 0.671875
vt 0.515625 0.671875
vt 0.515625 0.640625
vt 0.546875 0.640625
vt 0.609375 0.671875
vt 0.578125 0.671875
vt 0.578125 0.640625
vt 0.671875 0.671875
vt 0.640625 0.671875
vt 0.640625 0.640625
vt 0.734375 0.671875
vt 0.703125 0.671875
vt 0.703125 0.640625
vt 0.734375 0.640625
vt 0.796875 0.671875
vt 0.765625 0.671875
vt 0.765625 0.640625
vt 0.859375 0.671875
vt 0.828125 0.671875
vt 0.828125 0.640625
vt 0.921875 0.671875
vt 0.890625 0.671875
vt 0.890625 0.640625
vt 0.921875 0.640625
vt 0.984375 0.671875
vt 0.953125 0.671875
vt 0.953125 0.640625
vt 0.046875 0.609375
vt 0.015625 0.609375
vt 0.015625 0.578125
vt 0.109375 0.609375
vt 0.078125 0.609375
vt 0.078125 0.578125
vt 0.109375 0.578125
vt 0.171875 0.609375
vt 0.140625 0.609375
vt 0.140625 0.578125
vt 0.234375 0.609375
vt 0.203125 0.609375
vt 0.203125 0.578125
vt 0.296875 0.609375
vt 0.265625 0.609375
vt 0.265625 0.578125
vt 0.296875 0.578125
vt 0.359375 0.609375
vt 0.328125 0.609375
vt 0.328125 0.578125
vt 0.421875 0.609375
vt 0.390625 0.609375
vt 0.390625 0.578125
vt 0.421875 0.578125
vt 0.484375 0.609375
vt 0.453125 0.609375
vt 0.453125 0.578125
vt 0.484375 0.578125
vt 0.546875 0.609375
vt 0.515625 0.609375
vt 0.515625 0.578125
vt 0.546875 0.578125
vt 0.609375 0.609375
vt 0.578125 0.609375
vt 0.578125 0.578125
vt 0.609375 0.578125
vt 0.671875 0.609375
vt 0.640625 0.609375
vt 0.640625 0.578125
vt 0.671875 0.578125
vt 0.734375 0.609375
vt 0.703125 0.609375
vt 0.703125 0.578125
vt 0.734375 0.578125
vt 0.796875 0.609375
vt 0.765625 0.609375
vt 0.765625 0.578125
vt 0.796875 0.578125
vt 0.859375 0.609375
vt 0.828125 0.609375
vt 0.828125 0.578125
vt 0.859375 0.578125
vt 0.921875 0.609375
vt 0.890625 0.609375
vt 0.890625 0.578125
vt 0.921875 0.578125
vt 0.984375 0.609375
vt 0.953125 0.609375
vt 0.953125 0.578125
vt 0.984375 0.578125
vt 0.046875 0.546875
vt 0.015625 0.546875
vt 0.015625 0.515625
vt 0.046875 0.515625
vt 0.109375 0.546875
vt 0.078125 0.546875
vt 0.078125 0.515625
vt 0.109375 0.515625
vt 0.171875 0.546875
vt 0.140625 0.546875
vt 0.140625 0.515625
vt 0.171875 0.515625
vt 0.234375 0.546875
vt 0.203125 0.546875
vt 0.203125 0.515625
vt 0.234375 0.515625
vt 0.296875 0.546875
vt 0.265625 0.546875
vt 0.265625 0.515625
vt 0.296875 0.515625
vt 0.359375 0.546875
vt 0.328125 0.546875
vt 0.328125 0.515625
vt 0.359375 0.515625
vt 0.421875 0.546875
vt 0.390625 0.546875
vt 0.390625 0.515625
vt 0.421875 0.515625
vt 0.484375 0.546875
vt 0.453125 0.546875
vt 0.453125 0.515625
vt 0.484375 0.515625
vt 0.546875 0.546875
vt 0.515625 0.546875
vt 0.515625 0.515625
vt 0.546875 0.515625
vt 0.609375 0.546875
vt 0.578125 0.546875
vt 0.578125 0.515625
vt 0.609375 0.515625
vt 0.671875 0.546875
vt 0.640625 0.546875
vt 0.640625 0.515625
vt 0.671875 0.515625
vt 0.734375 0.546875
vt 0.703125 0.546875
vt 0.703125 0.515625
vt 0.734375 0.515625
vt 0.796875 0.546875
vt 0.765625 0.546875
vt 0.765625 0.515625
vt 0.796875 0.515625
vt 0.859375 0.546875
vt 0.828125 0.546875
vt 0.828125 0.515625
vt 0.859375 0.515625
vt 0.921875 0.546875
vt 0.890625 0.546875
vt 0.890625 0.515625
vt 0.921875 0.515625
vt 0.984375 0.546875
vt 0.953125 0.546875
vt 0.953125 0.515625
vt 0.984375 0.515625
vt 0.046875 0.484375
vt 0.015625 0.484375
vt 0.015625 0.453125
vt 0.046875 0.453125
vt 0.109375 0.484375
vt 0.078125 0.484375
vt 0.078125 0.453125
vt 0.109375 0.453125
vt 0.171875 0.484375
vt 0.140625 0.484375
vt 0.140625 0.453125
vt 0.171875 0.453125
vt 0.234375 0.484375
vt 0.203125 0.484375
vt 0.203125 0.453125
vt 0.234375 0.453125
vn 0.6087614290087207 0.7933533402912352 0
vn 0.36600202448126556 -0.3433462851159889 0.864960025996962
vn -0.6087614290087207 -0.7933533402912352 0
vn 0.6087614290087207 0.7933533402912352 0
vn 0.6323810654790682 -0.5932363076889018 0.49816149114839986
vn -0.6087614290087207 -0.7933533402912352 0
vn 0.6087614290087207 0.7933533402912352 0
vn 0.7293190390240082 -0.6841737639789306 0
vn -0.6087614290087207 -0.7933533402912352 0
vn 0.6087614290087207 0.7933533402912352 0
vn 0.6323810654790682 -0.5932363076889018 -0.4981614911483996
vn -0.6087614290087207 -0.7933533402912352 0
vn 0.6087614290087207 0.7933533402912352 0
vn 0.3660020244812655 -0.34334628511598897 -0.864960025996962
vn -0.6087614290087207 -0.7933533402912352 0
vn 0.6087614290087207 0.7933533402912352 0
vn 3.0367277300759635e-16 -2.8487525076071314e-16 -1
vn -0.6087614290087207 -0.7933533402912352 0
vn 0.6087614290087207 0.7933533402912352 0
vn -0.36600202448126523 0.3433462851159887 -0.8649600259969622
vn -0.6087614290087207 -0.7933533402912352 0
vn 0.6087614290087207 0.7933533402912352 0
vn -0.6323810654790682 0.5932363076889018 -0.49816149114839964
vn -0.6087614290087207 -0.7933533402912352 0
vn 0.6087614290087207 0.7933533402912352 0
vn -0.7293190390240082 0.6841737639789306 0
vn -0.6087614290087207 -0.7933533402912352 0
vn 0.6087614290087207 0.7933533402912352 0
vn -0.6323810654790682 0.593236307688902 0.4981614911483996
vn -0.6087614290087207 -0.7933533402912352 0
vn 0.6087614290087207 0.7933533402912352 0
vn -0.3660020244812657 0.343346285115989 0.8649600259969619
vn -0.6087614290087207 -0.7933533402912352 0
vn 0.6087614290087207 0.7933533402912352 0
vn 0 0 1
vn -0.6087614290087207 -0.7933533402912352 0
vn 0.7213454664396397 -0.6925754240853328 0
vn -0.3884242058149943 0.31506072286293735 -0.8659465210081247
vn -0.017040944941529065 -0.022208191824991903 -0.999608124422448
vn 0.3535114548006517 -0.3586579196203608 -0.863941055870319
vn 0.623155737904074 -0.6034456399994447 -0.4975241560797724
vn 0.35351145480065205 -0.3586579196203611 0.8639410558703188
vn -0.017040944941529634 -0.022208191824991414 0.999608124422448
vn 0.6231557379040743 -0.6034456399994451 0.4975241560797716
vn -0.38842420581499454 0.3150607228629377 0.8659465210081244
vn -0.7587248540085819 0.6514112340984429 0
vn -0.6597172099021759 0.561474514072401 -0.4995193419739115
vn -0.6597172099021757 0.561474514072401 0.49951934197391173
vn -0.39403888613071764 0.3078106528150449 -0.8660172967270569
vn -0.21092907995622082 0.15025063755011697 0.9658849150621442
vn 0.6087614290087207 0.7933533402912352 0
vn -0.6087614290087207 -0.7933533402912352 0
vn -0.3781366188750021 0.3281689647601725 0.8656314620171901
vn 0.38198753166909755 -0.323288520000619 0.8657771413505669
vn -0.01275373712404569 -0.016620993818603172 -0.999780518290816
vn 0.5609267668335255 -0.43053590664158914 -0.7071067778928389
vn 0.35281802768387316 -0.35949893192231985 0.8638749662352608
vn 0.6087614290087207 0.7933533402912352 0
vn 0.35281802768387327 -0.35949893192231996 -0.8638749662352607
vn -0.5609267668335254 0.43053590664158903 -0.707106777892839
vn -0.012753737124045992 -0.016620993818602884 0.999780518290816
vn -0.6087614290087207 -0.7933533402912352 0
vn 0.022614990088964393 0.02947242889049057 -0.9993097308435314
vn -0.6087614290087207 -0.7933533402912352 0
vn -0.7162988144790486 0.4873665240451099 -0.49938950691428924
vn 0.509528588197352 -0.49365862648462966 0.7047565383215131
usemtl m_50cebc26-108a-3880-f98f-553d228528db
f 26/73/19 28/74/19 25/75/19
f 29/76/20 28/77/20 26/78/20 27/79/20
f 58/80/21 57/81/21 52/82/21
f 28/83/22 30/84/22 25/85/22
f 31/86/23 30/87/23 28/88/23 29/89/23
f 50/90/24 58/91/24 52/92/24
f 30/93/25 32/94/25 25/95/25
f 33/96/26 32/97/26 30/98/26 31/99/26
f 51/100/27 50/101/27 52/102/27
f 32/103/28 34/104/28 25/105/28
f 35/106/29 34/107/29 32/108/29 33/109/29
f 56/110/30 51/111/30 52/112/30
f 34/113/31 36/114/31 25/115/31
f 37/116/32 36/117/32 34/118/32 35/119/32
f 55/120/33 56/121/33 52/122/33
f 36/123/34 38/124/34 25/125/34
f 39/126/35 38/127/35 36/128/35 37/129/35
f 53/130/36 55/131/36 52/132/36
f 38/133/37 40/134/37 25/135/37
f 41/136/38 40/137/38 38/138/38 39/139/38
f 54/140/39 53/141/39 52/142/39
f 40/143/40 42/144/40 25/145/40
f 43/146/41 42/147/41 40/148/41 41/149/41
f 61/150/42 54/151/42 52/152/42
f 42/153/43 44/154/43 25/155/43
f 45/156/44 44/157/44 42/158/44 43/159/44
f 62/160/45 61/161/45 52/162/45
f 44/163/46 46/164/46 25/165/46
f 47/166/47 46/167/47 44/168/47 45/169/47
f 60/170/48 62/171/48 52/172/48
f 46/173/49 48/174/49 25/175/49
f 49/176/50 48/177/50 46/178/50 47/179/50
f 59/180/51 60/181/51 52/182/51
f 48/183/52 26/184/52 25/185/52
f 27/186/53 26/187/53 48/188/53 49/189/53
f 57/190/54 59/191/54 52/192/54
f 31/193/55 50/194/55 51/195/55 33/196/55
f 39/197/56 53/198/56 54/199/56 41/200/56
f 37/201/57 55/202/57 53/203/57 39/204/57
f 35/205/58 56/206/58 55/207/58 37/208/58
f 33/209/59 51/210/59 56/211/59 35/212/59
f 27/213/60 57/214/60 58/215/60 29/216/60
f 49/217/61 59/218/61 57/219/61 27/220/61
f 29/221/62 58/222/62 50/223/62 31/224/62
f 47/225/63 60/226/63 59/227/63 49/228/63
f 43/229/64 61/230/64 62/231/64 45/232/64
f 41/233/65 54/234/65 61/235/65 43/236/65
f 45/237/66 62/238/66 60/239/66 47/240/66
f 55/241/67 41/242/67 39/243/67 56/244/67
f 53/245/68 56/246/68 43/247/68 54/248/68
f 51/249/69 54/250/69 61/251/69 52/252/69
f 62/253/70 52/254/70 50/255/70 60/256/70
f 45/257/71 60/258/71 59/259/71 58/260/71
f 47/261/72 57/262/72 58/263/72 49/264/72
f 27/265/73 49/266/73 46/267/73 48/268/73
f 29/269/74 44/270/74 48/271/74 26/272/74
f 28/273/75 26/274/75 31/275/75 30/276/75
f 25/277/76 30/278/76 32/279/76 33/280/76
f 36/281/77 34/282/77 33/283/77 42/284/77
f 35/285/78 42/286/78 38/287/78 40/288/78
f 37/289/79 40/290/79 39/291/79 56/292/79
f 54/293/80 56/294/80 52/295/80 60/296/80
f 58/297/81 60/298/81 49/299/81 48/300/81
f 30/301/82 26/302/82 48/303/82 33/304/82
f 42/305/83 40/306/83 33/307/83 56/308/83
f 48/309/84 60/310/84 56/311/84 33/312/84
o cylinder
v -0.33839315184723795 1.0085720798612574 0.18749999999999997
v -0.3308042631087845 1.0121108367968845 0.21874999999999997
v -0.5356395902846589 1.357495570592697 0.21874999999999997
v -0.317659922240796 1.0182401436050272 0.2103765877365274
v -0.5224952494166704 1.36362487740084 0.2103765877365274
v -0.3100710335023426 1.0217789005406541 0.19587341226347255
v -0.5149063606782169 1.3671636343364668 0.19587341226347255
v -0.3100710335023426 1.0217789005406541 0.1791265877365274
v -0.5149063606782169 1.3671636343364668 0.1791265877365274
v -0.317659922240796 1.0182401436050272 0.16462341226347255
v -0.5224952494166704 1.36362487740084 0.16462341226347255
v -0.3308042631087845 1.0121108367968845 0.15624999999999997
v -0.5356395902846589 1.357495570592697 0.15624999999999997
v -0.34598204058569126 1.0050333229256303 0.15624999999999997
v -0.5508173677615656 1.350418056721443 0.15624999999999997
v -0.3591263814536798 0.9989040161174876 0.16462341226347255
v -0.5639617086295543 1.3442887499133 0.16462341226347255
v -0.36671527019213324 0.9953652591818605 0.1791265877365274
v -0.5715505973680076 1.3407499929776732 0.1791265877365274
v -0.36671527019213324 0.9953652591818605 0.19587341226347255
v -0.5715505973680076 1.3407499929776732 0.19587341226347255
v -0.3591263814536798 0.9989040161174876 0.2103765877365274
v -0.5639617086295543 1.3442887499133 0.2103765877365274
v -0.34598204058569126 1.0050333229256303 0.21874999999999997
v -0.5508173677615656 1.350418056721443 0.21874999999999997
v -0.7776513139334199 1.7987205650307383 0.1921053767449099
v -0.7776513139334199 1.7987205650307383 0.18289462325509004
v -0.7932284790231123 1.79145681365707 0.18749999999999997
v -0.7974023678292617 1.7895104973424751 0.17031249999999998
v -0.8046317553066554 1.7861393785979967 0.17491787674490988
v -0.789054590216963 1.7934031299716648 0.17031249999999998
v -0.7818252027395693 1.7967742487161433 0.17491787674490988
v -0.789054590216963 1.7934031299716648 0.20468749999999997
v -0.7818252027395693 1.7967742487161433 0.20008212325509006
v -0.7974023678292617 1.7895104973424751 0.20468749999999997
v -0.8046317553066554 1.7861393785979967 0.20008212325509006
v -0.8088056441128048 1.7841930622834017 0.18289462325509007
v -0.8088056441128048 1.7841930622834017 0.19210537674490988
vt 0.046875 0.984375
vt 0.015625 0.984375
vt 0.015625 0.953125
vt 0.109375 0.984375
vt 0.078125 0.984375
vt 0.078125 0.953125
vt 0.109375 0.953125
vt 0.171875 0.984375
vt 0.140625 0.984375
vt 0.140625 0.953125
vt 0.234375 0.984375
vt 0.203125 0.984375
vt 0.203125 0.953125
vt 0.296875 0.984375
vt 0.265625 0.984375
vt 0.265625 0.953125
vt 0.296875 0.953125
vt 0.359375 0.984375
vt 0.328125 0.984375
vt 0.328125 0.953125
vt 0.421875 0.984375
vt 0.390625 0.984375
vt 0.390625 0.953125
vt 0.484375 0.984375
vt 0.453125 0.984375
vt 0.453125 0.953125
vt 0.484375 0.953125
vt 0.546875 0.984375
vt 0.515625 0.984375
vt 0.515625 0.953125
vt 0.609375 0.984375
vt 0.578125 0.984375
vt 0.578125 0.953125
vt 0.671875 0.984375
vt 0.640625 0.984375
vt 0.640625 0.953125
vt 0.671875 0.953125
vt 0.734375 0.984375
vt 0.703125 0.984375
vt 0.703125 0.953125
vt 0.796875 0.984375
vt 0.765625 0.984375
vt 0.765625 0.953125
vt 0.859375 0.984375
vt 0.828125 0.984375
vt 0.828125 0.953125
vt 0.859375 0.953125
vt 0.921875 0.984375
vt 0.890625 0.984375
vt 0.890625 0.953125
vt 0.984375 0.984375
vt 0.953125 0.984375
vt 0.953125 0.953125
vt 0.046875 0.921875
vt 0.015625 0.921875
vt 0.015625 0.890625
vt 0.046875 0.890625
vt 0.109375 0.921875
vt 0.078125 0.921875
vt 0.078125 0.890625
vt 0.171875 0.921875
vt 0.140625 0.921875
vt 0.140625 0.890625
vt 0.234375 0.921875
vt 0.203125 0.921875
vt 0.203125 0.890625
vt 0.234375 0.890625
vt 0.296875 0.921875
vt 0.265625 0.921875
vt 0.265625 0.890625
vt 0.359375 0.921875
vt 0.328125 0.921875
vt 0.328125 0.890625
vt 0.421875 0.921875
vt 0.390625 0.921875
vt 0.390625 0.890625
vt 0.421875 0.890625
vt 0.484375 0.921875
vt 0.453125 0.921875
vt 0.453125 0.890625
vt 0.546875 0.921875
vt 0.515625 0.921875
vt 0.515625 0.890625
vt 0.609375 0.921875
vt 0.578125 0.921875
vt 0.578125 0.890625
vt 0.609375 0.890625
vt 0.671875 0.921875
vt 0.640625 0.921875
vt 0.640625 0.890625
vt 0.734375 0.921875
vt 0.703125 0.921875
vt 0.703125 0.890625
vt 0.796875 0.921875
vt 0.765625 0.921875
vt 0.765625 0.890625
vt 0.796875 0.890625
vt 0.859375 0.921875
vt 0.828125 0.921875
vt 0.828125 0.890625
vt 0.921875 0.921875
vt 0.890625 0.921875
vt 0.890625 0.890625
vt 0.984375 0.921875
vt 0.953125 0.921875
vt 0.953125 0.890625
vt 0.984375 0.890625
vt 0.046875 0.859375
vt 0.015625 0.859375
vt 0.015625 0.828125
vt 0.109375 0.859375
vt 0.078125 0.859375
vt 0.078125 0.828125
vt 0.171875 0.859375
vt 0.140625 0.859375
vt 0.140625 0.828125
vt 0.171875 0.828125
vt 0.234375 0.859375
vt 0.203125 0.859375
vt 0.203125 0.828125
vt 0.296875 0.859375
vt 0.265625 0.859375
vt 0.265625 0.828125
vt 0.296875 0.828125
vt 0.359375 0.859375
vt 0.328125 0.859375
vt 0.328125 0.828125
vt 0.359375 0.828125
vt 0.421875 0.859375
vt 0.390625 0.859375
vt 0.390625 0.828125
vt 0.421875 0.828125
vt 0.484375 0.859375
vt 0.453125 0.859375
vt 0.453125 0.828125
vt 0.484375 0.828125
vt 0.546875 0.859375
vt 0.515625 0.859375
vt 0.515625 0.828125
vt 0.546875 0.828125
vt 0.609375 0.859375
vt 0.578125 0.859375
vt 0.578125 0.828125
vt 0.609375 0.828125
vt 0.671875 0.859375
vt 0.640625 0.859375
vt 0.640625 0.828125
vt 0.671875 0.828125
vt 0.734375 0.859375
vt 0.703125 0.859375
vt 0.703125 0.828125
vt 0.734375 0.828125
vt 0.796875 0.859375
vt 0.765625 0.859375
vt 0.765625 0.828125
vt 0.796875 0.828125
vt 0.859375 0.859375
vt 0.828125 0.859375
vt 0.828125 0.828125
vt 0.859375 0.828125
vt 0.921875 0.859375
vt 0.890625 0.859375
vt 0.890625 0.828125
vt 0.921875 0.828125
vt 0.984375 0.859375
vt 0.953125 0.859375
vt 0.953125 0.828125
vt 0.984375 0.828125
vt 0.046875 0.796875
vt 0.015625 0.796875
vt 0.015625 0.765625
vt 0.046875 0.765625
vt 0.109375 0.796875
vt 0.078125 0.796875
vt 0.078125 0.765625
vt 0.109375 0.765625
vt 0.171875 0.796875
vt 0.140625 0.796875
vt 0.140625 0.765625
vt 0.171875 0.765625
vt 0.234375 0.796875
vt 0.203125 0.796875
vt 0.203125 0.765625
vt 0.234375 0.765625
vt 0.296875 0.796875
vt 0.265625 0.796875
vt 0.265625 0.765625
vt 0.296875 0.765625
vt 0.359375 0.796875
vt 0.328125 0.796875
vt 0.328125 0.765625
vt 0.359375 0.765625
vt 0.421875 0.796875
vt 0.390625 0.796875
vt 0.390625 0.765625
vt 0.421875 0.765625
vt 0.484375 0.796875
vt 0.453125 0.796875
vt 0.453125 0.765625
vt 0.484375 0.765625
vt 0.546875 0.796875
vt 0.515625 0.796875
vt 0.515625 0.765625
vt 0.546875 0.765625
vt 0.609375 0.796875
vt 0.578125 0.796875
vt 0.578125 0.765625
vt 0.609375 0.765625
vt 0.671875 0.796875
vt 0.640625 0.796875
vt 0.640625 0.765625
vt 0.671875 0.765625
vt 0.734375 0.796875
vt 0.703125 0.796875
vt 0.703125 0.765625
vt 0.734375 0.765625
vt 0.796875 0.796875
vt 0.765625 0.796875
vt 0.765625 0.765625
vt 0.796875 0.765625
vt 0.859375 0.796875
vt 0.828125 0.796875
vt 0.828125 0.765625
vt 0.859375 0.765625
vt 0.921875 0.796875
vt 0.890625 0.796875
vt 0.890625 0.765625
vt 0.921875 0.765625
vt 0.984375 0.796875
vt 0.953125 0.796875
vt 0.953125 0.765625
vt 0.984375 0.765625
vt 0.046875 0.734375
vt 0.015625 0.734375
vt 0.015625 0.703125
vt 0.046875 0.703125
vt 0.109375 0.734375
vt 0.078125 0.734375
vt 0.078125 0.703125
vt 0.109375 0.703125
vn 0.42261826174069944 -0.9063077870366499 0
vn 0.43164005249645815 0.255990270338913 0.864960025996962
vn -0.42261826174069944 0.9063077870366499 0
vn 0.42261826174069944 -0.9063077870366499 0
vn 0.7457909466157149 0.44230192480119124 0.49816149114839986
vn -0.42261826174069944 0.9063077870366499 0
vn 0.42261826174069944 -0.9063077870366499 0
vn 0.8601135710578645 0.510102582704781 0
vn -0.42261826174069944 0.9063077870366499 0
vn 0.42261826174069944 -0.9063077870366499 0
vn 0.745790946615715 0.4423019248011914 -0.49816149114839975
vn -0.42261826174069944 0.9063077870366499 0
vn 0.42261826174069944 -0.9063077870366499 0
vn 0.4316400524964582 0.2559902703389131 -0.8649600259969619
vn -0.42261826174069944 0.9063077870366499 0
vn 0.42261826174069944 -0.9063077870366499 0
vn 3.5813280505352313e-16 2.1239575209169663e-16 -1
vn -0.42261826174069944 0.9063077870366499 0
vn 0.42261826174069944 -0.9063077870366499 0
vn -0.43164005249645776 -0.25599027033891286 -0.8649600259969622
vn -0.42261826174069944 0.9063077870366499 0
vn 0.42261826174069944 -0.9063077870366499 0
vn -0.7457909466157151 -0.44230192480119146 -0.4981614911483993
vn -0.42261826174069944 0.9063077870366499 0
vn 0.42261826174069944 -0.9063077870366499 0
vn -0.8601135710578646 -0.5101025827047811 -4.123132111434658e-16
vn -0.42261826174069944 0.9063077870366499 0
vn 0.42261826174069944 -0.9063077870366499 0
vn -0.7457909466157151 -0.44230192480119157 0.4981614911483993
vn -0.42261826174069944 0.9063077870366499 0
vn 0.42261826174069944 -0.9063077870366499 0
vn -0.4316400524964581 -0.25599027033891303 0.864960025996962
vn -0.42261826174069944 0.9063077870366499 0
vn 0.42261826174069944 -0.9063077870366499 0
vn 0 0 1
vn -0.42261826174069944 0.9063077870366499 0
vn 0.8541474560511336 0.5200308868917086 0
vn -0.44740862242942403 -0.22352214058059416 -0.8659465210081247
vn -0.011830274039100879 0.025370104548378184 -0.999608124422448
vn 0.4227596034515093 0.27364241204755024 -0.8639410558703189
vn 0.7389940000837345 0.45426598151011943 -0.497524156079772
vn 0.42275960345150954 0.27364241204755035 0.8639410558703188
vn -0.011830274039101533 0.025370104548377806 0.999608124422448
vn 0.7389940000837346 0.45426598151011943 0.49752415607977185
vn -0.4474086224294241 -0.22352214058059425 0.8659465210081244
vn -0.881731241494443 -0.4717520723565171 0
vn -0.7656046049177115 -0.40537638796894065 -0.4995193419739118
vn -0.7656046049177117 -0.40537638796894065 0.4995193419739119
vn -0.4513210100407295 -0.2152286869015758 -0.8660172967270569
vn -0.23844940853204064 -0.10103568887335983 0.9658849150621442
vn 0.42261826174069944 -0.9063077870366499 0
vn -0.42261826174069944 0.9063077870366499 0
vn -0.4402020351926553 -0.23854630615087363 0.8656314620171901
vn 0.4429053443976937 0.23294805734068874 0.8657771413505669
vn -0.008853981144697003 0.018987423838863864 -0.999780518290816
vn 0.6408155881662614 0.29892371371494736 -0.7071067778928389
vn 0.42226464170412287 0.2746135740973413 0.8638749662352609
vn 0.42261826174069944 -0.9063077870366499 0
vn 0.42226464170412287 0.2746135740973413 -0.8638749662352609
vn -0.6408155881662614 -0.2989237137149473 -0.7071067778928392
vn -0.008853981144697362 0.018987423838863655 0.999780518290816
vn -0.42261826174069944 0.9063077870366499 0
vn 0.01569992339403696 -0.03366859436998152 -0.9993097308435314
vn -0.42261826174069944 0.9063077870366499 0
vn -0.804805094791316 -0.3207785525589956 -0.4993895069142892
vn 0.604298008704079 0.371674774997393 0.704756538321513
usemtl m_50cebc26-108a-3880-f98f-553d228528db
f 66/313/85 64/314/85 63/315/85
f 64/316/86 66/317/86 67/318/86 65/319/86
f 95/320/87 96/321/87 90/322/87
f 68/323/88 66/324/88 63/325/88
f 66/326/89 68/327/89 69/328/89 67/329/89
f 96/330/90 88/331/90 90/332/90
f 70/333/91 68/334/91 63/335/91
f 68/336/92 70/337/92 71/338/92 69/339/92
f 88/340/93 89/341/93 90/342/93
f 72/343/94 70/344/94 63/345/94
f 70/346/95 72/347/95 73/348/95 71/349/95
f 89/350/96 94/351/96 90/352/96
f 74/353/97 72/354/97 63/355/97
f 72/356/98 74/357/98 75/358/98 73/359/98
f 94/360/99 93/361/99 90/362/99
f 76/363/100 74/364/100 63/365/100
f 74/366/101 76/367/101 77/368/101 75/369/101
f 93/370/102 91/371/102 90/372/102
f 78/373/103 76/374/103 63/375/103
f 76/376/104 78/377/104 79/378/104 77/379/104
f 91/380/105 92/381/105 90/382/105
f 80/383/106 78/384/106 63/385/106
f 78/386/107 80/387/107 81/388/107 79/389/107
f 92/390/108 99/391/108 90/392/108
f 82/393/109 80/394/109 63/395/109
f 80/396/110 82/397/110 83/398/110 81/399/110
f 99/400/111 100/401/111 90/402/111
f 84/403/112 82/404/112 63/405/112
f 82/406/113 84/407/113 85/408/113 83/409/113
f 100/410/114 98/411/114 90/412/114
f 86/413/115 84/414/115 63/415/115
f 84/416/116 86/417/116 87/418/116 85/419/116
f 98/420/117 97/421/117 90/422/117
f 64/423/118 86/424/118 63/425/118
f 86/426/119 64/427/119 65/428/119 87/429/119
f 97/430/120 95/431/120 90/432/120
f 89/433/121 88/434/121 69/435/121 71/436/121
f 92/437/122 91/438/122 77/439/122 79/440/122
f 91/441/123 93/442/123 75/443/123 77/444/123
f 93/445/124 94/446/124 73/447/124 75/448/124
f 94/449/125 89/450/125 71/451/125 73/452/125
f 96/453/126 95/454/126 65/455/126 67/456/126
f 95/457/127 97/458/127 87/459/127 65/460/127
f 88/461/128 96/462/128 67/463/128 69/464/128
f 97/465/129 98/466/129 85/467/129 87/468/129
f 100/469/130 99/470/130 81/471/130 83/472/130
f 99/473/131 92/474/131 79/475/131 81/476/131
f 98/477/132 100/478/132 83/479/132 85/480/132
f 77/481/133 79/482/133 93/483/133 94/484/133
f 81/485/134 94/486/134 91/487/134 92/488/134
f 99/489/135 92/490/135 89/491/135 90/492/135
f 88/493/136 90/494/136 100/495/136 98/496/136
f 97/497/137 98/498/137 83/499/137 96/500/137
f 96/501/138 95/502/138 85/503/138 87/504/138
f 84/505/139 87/506/139 65/507/139 86/508/139
f 86/509/140 82/510/140 67/511/140 64/512/140
f 69/513/141 64/514/141 66/515/141 68/516/141
f 70/517/142 68/518/142 63/519/142 71/520/142
f 71/521/143 72/522/143 74/523/143 80/524/143
f 80/525/144 73/526/144 76/527/144 78/528/144
f 77/529/145 78/530/145 75/531/145 94/532/145
f 90/533/146 94/534/146 92/535/146 98/536/146
f 87/537/147 98/538/147 96/539/147 86/540/147
f 86/541/148 64/542/148 68/543/148 71/544/148
f 71/545/149 78/546/149 80/547/149 94/548/149
f 94/549/150 98/550/150 86/551/150 71/552/150