{"asset":{"version":"2.0","generator":"Blockbench 5.0.3 glTF exporter"},"scenes":[{"nodes":[2,8],"name":"blockbench_export"}],"scene":0,"nodes":[{"translation":[0.4375,-0.0625,0],"name":"тело сундука","mesh":0},{"translation":[0,0.09374999999999997,0],"name":"внутренности сундука(низ)","mesh":1},{"name":"group","children":[0,1]},{"rotation":[0.043619387365336,0,0,0.9990482215818578],"translation":[0.875,0.33593750000000006,-0.0171875],"name":"крышка","mesh":2},{"rotation":[0.02181488503456112,0,0,0.9997620270799091],"translation":[1.078125,0.4375,0.490625],"name":"заклёпки на крышке","mesh":3},{"rotation":[0.06540312923014306,0,0,0.9978589232386035],"translation":[0.890625,0.4984375000000003,-0.41406249999999994],"name":"заклёпки на крышке спереди","mesh":4},{"rotation":[0.02181488503456112,0,0,0.9997620270799091],"translation":[0.671875,0.4375,0.490625],"name":"заклёпки на крышке","mesh":5},{"rotation":[0.043619387365336,0,0,0.9990482215818578],"translation":[0.875,0.275,0],"name":"внутренности сундука(верх)","mesh":6},{"translation":[-0.875,0,0],"name":"group2","children":[3,4,5,6,7]}],"bufferViews":[{"buffer":0,"byteOffset":0,"byteLength":1440,"target":34962,"byteStride":12},{"buffer":0,"byteOffset":1440,"byteLength":1440,"target":34962,"byteStride":12},{"buffer":0,"byteOffset":2880,"byteLength":960,"target":34962,"byteStride":8},{"buffer":0,"byteOffset":3840,"byteLength":360,"target":34963},{"buffer":0,"byteOffset":4200,"byteLength":288,"target":34962,"byteStride":12},{"buffer":0,"byteOffset":4488,"byteLength":288,"target":34962,"byteStride":12},{"buffer":0,"byteOffset":4776,"byteLength":192,"target":34962,"byteStride":8},{"buffer":0,"byteOffset":4968,"byteLength":72,"target":34963},{"buffer":0,"byteOffset":5040,"byteLength":672,"target":34962,"byteStride":12},{"buffer":0,"byteOffset":5712,"byteLength":672,"target":34962,"byteStride":12},{"buffer":0,"byteOffset":6384,"byteLength":448,"target":34962,"byteStride":8},{"buffer":0,"byteOffset":6832,"byteLength":168,"target":34963},{"buffer":0,"byteOffset":7000,"byteLength":480,"target":34962,"byteStride":12},{"buffer":0,"byteOffset":7480,"byteLength":480,"target":34962,"byteStride":12},{"buffer":0,"byteOffset":7960,"byteLength":320,"target":34962,"byteStride":8},{"buffer":0,"byteOffset":8280,"byteLength":120,"target":34963},{"buffer":0,"byteOffset":8400,"byteLength":1056,"target":34962,"byteStride":12},{"buffer":0,"byteOffset":9456,"byteLength":1056,"target":34962,"byteStride":12},{"buffer":0,"byteOffset":10512,"byteLength":704,"target":34962,"byteStride":8},{"buffer":0,"byteOffset":11216,"byteLength":264,"target":34963},{"buffer":0,"byteOffset":11480,"byteLength":480,"target":34962,"byteStride":12},{"buffer":0,"byteOffset":11960,"byteLength":480,"target":34962,"byteStride":12},{"buffer":0,"byteOffset":12440,"byteLength":320,"target":34962,"byteStride":8},{"buffer":0,"byteOffset":12760,"byteLength":120,"target":34963},{"buffer":0,"byteOffset":12880,"byteLength":288,"target":34962,"byteStride":12},{"buffer":0,"byteOffset":13168,"byteLength":288,"target":34962,"byteStride":12},{"buffer":0,"byteOffset":13456,"byteLength":192,"target":34962,"byteStride":8},{"buffer":0,"byteOffset":13648,"byteLength":72,"target":34963},{"buffer":0,"byteOffset":13720,"byteLength":8},{"buffer":0,"byteOffset":13728,"byteLength":24},{"buffer":0,"byteOffset":13752,"byteLength":24},{"buffer":0,"byteOffset":13776,"byteLength":96},{"buffer":0,"byteOffset":13872,"byteLength":28},{"buffer":0,"byteOffset":13900,"byteLength":84},{"buffer":0,"byteOffset":13984,"byteLength":8},{"buffer":0,"byteOffset":13992,"byteLength":24}],"buffers":[{"byteLength":14016,"uri":"data:application/octet-stream;base64,"}],"accessors":[{"bufferView":0,"componentType":5126,"count":120,"max":[0.0625,0.5625,0.4375],"min":[-0.9375,0.0625,-0.4375],"type":"VEC3"},{"bufferView":1,"componentType":5126,"count":120,"max":[1,1,1],"min":[-1,-1,-1],"type":"VEC3"},{"bufferView":2,"componentType":5126,"count":120,"max":[0.78125,0.765625],"min":[0,0],"type":"VEC2"},{"bufferView":3,"componentType":5123,"count":180,"max":[119],"min":[0],"type":"SCALAR"},{"bufferView":4,"componentType":5126,"count":24,"max":[0.4375,0.3125,0.375],"min":[-0.4375,0.1875,-0.375],"type":"VEC3"},{"bufferView":5,"componentType":5126,"count":24,"max":[1,1,1],"min":[-1,-1,-1],"type":"VEC3"},{"bufferView":6,"componentType":5126,"count":24,"max":[0.734375,0.046875],"min":[0.390625,0.015625],"type":"VEC2"},{"bufferView":7,"componentType":5123,"count":36,"max":[23],"min":[0],"type":"SCALAR"},{"bufferView":8,"componentType":5126,"count":56,"max":[0.5,0.4375,0.4375],"min":[-0.5,0.1875,-0.4375],"type":"VEC3"},{"bufferView":9,"componentType":5126,"count":56,"max":[1,1,1],"min":[-1,-1,-1],"type":"VEC3"},{"bufferView":10,"componentType":5126,"count":56,"max":[0.515625,0.46875],"min":[0,0],"type":"VEC2"},{"bufferView":11,"componentType":5123,"count":84,"max":[55],"min":[0],"type":"SCALAR"},{"bufferView":12,"componentType":5126,"count":40,"max":[0.0625,0.125,-0.03125],"min":[-0.015625,-0.0002726211678236723,-0.0625],"type":"VEC3"},{"bufferView":13,"componentType":5126,"count":40,"max":[1,0.9999405741691589,0.9950891733169556],"min":[-1,-0.9999405741691589,-1],"type":"VEC3"},{"bufferView":14,"componentType":5126,"count":40,"max":[0.71875,0.046875],"min":[0.015625,0.015625],"type":"VEC2"},{"bufferView":15,"componentType":5123,"count":60,"max":[39],"min":[0],"type":"SCALAR"},{"bufferView":16,"componentType":5126,"count":88,"max":[0.0625,0.125,-0.03125],"min":[-0.11093749850988388,0,-0.0625],"type":"VEC3"},{"bufferView":17,"componentType":5126,"count":88,"max":[0.9578262567520142,1,1],"min":[-0.9284766912460327,-1,-1],"type":"VEC3"},{"bufferView":18,"componentType":5126,"count":88,"max":[0.984375,0.171875],"min":[0.015625,0.015625],"type":"VEC2"},{"bufferView":19,"componentType":5123,"count":132,"max":[87],"min":[0],"type":"SCALAR"},{"bufferView":20,"componentType":5126,"count":40,"max":[0.015625,0.125,-0.03125],"min":[-0.0625,-0.0002726211678236723,-0.0625],"type":"VEC3"},{"bufferView":21,"componentType":5126,"count":40,"max":[1,0.9999405741691589,0.9950891733169556],"min":[-1,-0.9999405741691589,-1],"type":"VEC3"},{"bufferView":22,"componentType":5126,"count":40,"max":[0.734375,0.046875],"min":[0.390625,0.015625],"type":"VEC2"},{"bufferView":23,"componentType":5123,"count":60,"max":[39],"min":[0],"type":"SCALAR"},{"bufferView":24,"componentType":5126,"count":24,"max":[0.375,0.265625,0.3125],"min":[-0.375,0.234375,-0.3125],"type":"VEC3"},{"bufferView":25,"componentType":5126,"count":24,"max":[1,1,1],"min":[-1,-1,-1],"type":"VEC3"},{"bufferView":26,"componentType":5126,"count":24,"max":[0.359375,0.046875],"min":[0.015625,0.015625],"type":"VEC2"},{"bufferView":27,"componentType":5123,"count":36,"max":[23],"min":[0],"type":"SCALAR"},{"bufferView":28,"componentType":5126,"count":2,"max":[0.25],"min":[0],"type":"SCALAR"},{"bufferView":29,"componentType":5126,"count":2,"max":[1,1,1],"min":[0.800000011920929,0.800000011920929,0.800000011920929],"type":"VEC3"},{"bufferView":30,"componentType":5126,"count":6,"max":[0.6666666865348816],"min":[0],"type":"SCALAR"},{"bufferView":31,"componentType":5126,"count":6,"max":[0.2672383785247803,0,0,1],"min":[-0.03489949554204941,0,0,0.9636304378509521],"type":"VEC4"},{"bufferView":32,"componentType":5126,"count":7,"max":[0.6666666865348816],"min":[0],"type":"SCALAR"},{"bufferView":33,"componentType":5126,"count":7,"max":[-0.699999988079071,0.3046875,0.03687499836087227],"min":[-0.875,-0.012500000186264515,-0.1875],"type":"VEC3"},{"bufferView":34,"componentType":5126,"count":2,"max":[0.25],"min":[0],"type":"SCALAR"},{"bufferView":35,"componentType":5126,"count":2,"max":[1,1,1],"min":[0.800000011920929,0.800000011920929,0.800000011920929],"type":"VEC3"}],"materials":[{"pbrMetallicRoughness":{"metallicFactor":0,"roughnessFactor":1,"baseColorTexture":{"index":0}},"alphaMode":"MASK","alphaCutoff":0.05,"doubleSided":true},{"pbrMetallicRoughness":{"metallicFactor":0,"roughnessFactor":1,"baseColorTexture":{"index":1}},"alphaMode":"MASK","alphaCutoff":0.05,"doubleSided":true},{"pbrMetallicRoughness":{"metallicFactor":0,"roughnessFactor":1,"baseColorTexture":{"index":2}},"alphaMode":"MASK","alphaCutoff":0.05,"doubleSided":true},{"pbrMetallicRoughness":{"metallicFactor":0,"roughnessFactor":1,"baseColorTexture":{"index":3}},"alphaMode":"MASK","alphaCutoff":0.05,"doubleSided":true}],"textures":[{"sampler":0,"source":0,"name":"chestBody"},{"sampler":1,"source":1,"name":"chestInside"},{"sampler":2,"source":2,"name":"chestCap"},{"sampler":3,"source":3,"name":"zaklepki"}],"samplers":[{"magFilter":9728,"minFilter":9728,"wrapS":33071,"wrapT":33071},{"magFilter":9728,"minFilter":9728,"wrapS":33071,"wrapT":33071},{"magFilter":9728,"minFilter":9728,"wrapS":33071,"wrapT":33071},{"magFilter":9728,"minFilter":9728,"wrapS":33071,"wrapT":33071}],"images":[{"mimeType":"image/png","uri":"data:image/png;base64,"},{"mimeType":"image/png","uri":"data:image/png;base64,"},{"mimeType":"image/png","uri":"data:image/png;base64,"},{"mimeType":"image/png","uri":"data:image/png;base64,"}],"meshes":[{"primitives":[{"mode":4,"attributes":{"POSITION":0,"NORMAL":1,"TEXCOORD_0":2},"indices":3,"material":0}]},{"primitives":[{"mode":4,"attributes":{"POSITION":4,"NORMAL":5,"TEXCOORD_0":6},"indices":7,"material":1}]},{"primitives":[{"mode":4,"attributes":{"POSITION":8,"NORMAL":9,"TEXCOORD_0":10},"indices":11,"material":2}]},{"primitives":[{"mode":4,"attributes":{"POSITION":12,"NORMAL":13,"TEXCOORD_0":14},"indices":15,"material":3}]},{"primitives":[{"mode":4,"attributes":{"POSITION":16,"NORMAL":17,"TEXCOORD_0":18},"indices":19,"material":3}]},{"primitives":[{"mode":4,"attributes":{"POSITION":20,"NORMAL":21,"TEXCOORD_0":22},"indices":23,"material":3}]},{"primitives":[{"mode":4,"attributes":{"POSITION":24,"NORMAL":25,"TEXCOORD_0":26},"indices":27,"material":1}]}],"animations":[{"name":"chest_opened","samplers":[{"input":28,"output":29,"interpolation":"LINEAR"},{"input":30,"output":31,"interpolation":"LINEAR"},{"input":32,"output":33,"interpolation":"LINEAR"},{"input":34,"output":35,"interpolation":"LINEAR"}],"channels":[{"sampler":0,"target":{"node":2,"path":"scale"}},{"sampler":1,"target":{"node":8,"path":"rotation"}},{"sampler":2,"target":{"node":8,"path":"translation"}},{"sampler":3,"target":{"node":8,"path":"scale"}}]}]}