# Made in Blockbench 5.0.3
mtllib materials.mtl

o основа
v 0.5 0.5 1.5
v 0.5 0.5 -0.31875
v 0.5 0 1.5
v 0.5 0 -0.3125
v -0.5 0.5 1.5
v -0.5 0.5 -0.3125
v -0.5 0 1.5
v -0.5 0 -0.3125
vt 0.723046875 0.8984375
vt 0.495703125 0.8984375
vt 0.495703125 0.8359375
vt 0.722265625 0.8359375
vt 0.7578125 0.5859375
vt 0.7578125 0.6484375
vt 0.53125 0.6484375
vt 0.53125 0.5859375
vt 0 0.7734375
vt 0.125 0.7734375
vt 0.125 1
vt 0 0.99921875
vt 0.2578125 0.7734375
vt 0.2578125 1
vt 0.1328125 1
vt 0.1328125 0.7734375
vt 0.28125 0.3984375
vt 0.28125 0.4609375
vt 0.15625 0.4609375
vt 0.15625 0.3984375
vt 0.65625 0.5703171874999999
vt 0.53125 0.5703171874999999
vt 0.53125 0.5078125
vt 0.65625 0.507821875
vn 1 0 0
vn -1 0 0
vn 0 1 0
vn 0 -1 0
vn 0 0 1
vn -0.006249389737829895 -0.01249877947565979 -0.9999023580527868
usemtl m_074a73a8-5b8d-cf67-56c4-8b12a688c86f
f 2/1/1 1/2/1 3/3/1 4/4/1
f 7/5/2 5/6/2 6/7/2 8/8/2
f 5/9/3 1/10/3 2/11/3 6/12/3
f 4/13/4 3/14/4 7/15/4 8/16/4
f 3/17/5 1/18/5 5/19/5 7/20/5
f 6/21/6 2/22/6 4/23/6 8/24/6
o основа-верх
v 0.3125 0.75 1.25
v 0.3125 0.75 0.24375000000000002
v 0.5 0.5 1.5
v 0.5 0.5 -0.3125
v -0.3125 0.75 1.25
v -0.3125 0.75 0.25
v -0.5 0.5 1.5
v -0.5 0.5 -0.3125
vt 0.67265625 0.9453125
vt 0.546875 0.9453125
vt 0.515625 0.90625
vt 0.7421875 0.90625
vt 0.734375 0.453125
vt 0.703125 0.4921875
vt 0.578125 0.4921875
vt 0.5078125 0.453125
vt 0.1563170084172386 0.5635921874828161
vt 0.2344420084172386 0.5635921874828161
vt 0.2344420084172386 0.6893734374828162
vt 0.1563170084172386 0.6885921874828161
vt 0.125 0.5390625
vt 0.125 0.765625
vt 0 0.765625
vt 0 0.5390625
vt 0.8203125 0.2578125
vt 0.796875 0.3046875
vt 0.71875 0.3046875
vt 0.6953125 0.2578125
vt 0.1563170083195921 0.6885921874818397
vt 0.2344420084172386 0.6893734374828162
vt 0.2578119493244042 0.765625
vt 0.1328130506755958 0.7655149117542747
vn 0.8 0.6000000000000001 0
vn -0.8 0.6 0
vn 0 1 0
vn 0 -1 0
vn 0 0.7071067811865476 0.7071067811865476
vn -0.004110875337285147 0.9115866060429845 -0.41108753372851614
usemtl m_074a73a8-5b8d-cf67-56c4-8b12a688c86f
f 10/25/7 9/26/7 11/27/7 12/28/7
f 15/29/8 13/30/8 14/31/8 16/32/8
f 13/33/9 9/34/9 10/35/9 14/36/9
f 12/37/10 11/38/10 15/39/10 16/40/10
f 11/41/11 9/42/11 13/43/11 15/44/11
f 14/45/12 10/46/12 12/47/12 16/48/12
o крыло1
v -0.8125 0.125 1.5
v -0.8125 0.125 0.5
v -0.8125 0 1.5
v -0.8125 0 0.5
v -1.8125 0.125 1.5
v -1.8125 0 1.5
vt 0.8671875 0.4765625
vt 0.7421875 0.4765625
vt 0.7421875 0.4609375
vt 0.8671875 0.4609375
vt 0.5234375 0.4765625
vt 0.5234375 0.6015625
vt 0.3984375 0.4765625
vt 0.2890625 0.46875
vt 0.2890625 0.59375
vt 0.1640625 0.46875
vt 0.8984375 0.8125
vt 0.8984375 0.828125
vt 0.7734375 0.828125
vt 0.7734375 0.8125
vt 0.9140625 0.8984375
vt 0.734375 0.8984375
vt 0.734375 0.8828125
vt 0.9140625 0.8828125
vn 1 0 0
vn 0 1 0
vn 0 1 0
vn 0 0 1
vn -0.7071067811865476 0 -0.7071067811865476
usemtl m_074a73a8-5b8d-cf67-56c4-8b12a688c86f
f 18/49/13 17/50/13 19/51/13 20/52/13
f 17/53/14 18/54/14 21/55/14
f 19/56/15 20/57/15 22/58/15
f 19/59/16 17/60/16 21/61/16 22/62/16
f 21/63/17 18/64/17 20/65/17 22/66/17
o крыло1-верхнее
v -0.8125 0.5 1.5
v -0.8125 0.5 0.5
v -0.8125 0.375 1.5
v -0.8125 0.375 0.5
v -1.8125 0.8125 1.5
v -1.8125 0.6875 1.5
vt 0.8984375 0.7578125
vt 0.7734375 0.7578125
vt 0.7734375 0.7421875
vt 0.8984375 0.7421875
vt 0.265625 0.7440382812499999
vt 0.390625 0.7440382812499999
vt 0.265625 0.875
vt 0.3828125 0.7909140625
vt 0.5078125 0.7909140625
vt 0.3828125 0.921875
vt 0.6484375 0.13000308905849922
vt 0.6640625 0.1346636358262483
vt 0.6640625 0.265625
vt 0.6484375 0.2609644532322508
vt 0.9140625 0.5
vt 0.733021532383368 0.5
vt 0.729650187374914 0.484375
vt 0.9106911549915461 0.484375
vn 1 0 0
vn 0.2982749931359468 0.9544799780350297 0
vn 0.2982749931359468 0.9544799780350297 0
vn 0 0 1
vn -0.7071067811865476 0 -0.7071067811865476
usemtl m_074a73a8-5b8d-cf67-56c4-8b12a688c86f
f 24/67/18 23/68/18 25/69/18 26/70/18
f 23/71/19 24/72/19 27/73/19
f 25/74/20 26/75/20 28/76/20
f 25/77/21 23/78/21 27/79/21 28/80/21
f 27/81/22 24/82/22 26/83/22 28/84/22
o крыло2
v 1.8125 0.125 1.5
v 1.8125 0 1.5
v 0.8125 0.125 1.5
v 0.8125 0.125 0.5
v 0.8125 0 1.5
v 0.8125 0 0.5
vt 0.9140625 0.7890625
vt 0.9140625 0.8046875
vt 0.7890625 0.8046875
vt 0.7890625 0.7890625
vt 0.296875 0.4375
vt 0.421875 0.4375
vt 0.296875 0.5625
vt 0.5703125 1
vt 0.4453125 1
vt 0.4453125 0.875
vt 0.9140625 0.765625
vt 0.9140625 0.78125
vt 0.7890625 0.78125
vt 0.7890625 0.765625
vt 0.9140625 0.875
vt 0.734375 0.875
vt 0.734375 0.859375
vt 0.9140625 0.859375
vn -1 0 0
vn 0 1 0
vn 0 -1 0
vn 0 0 1
vn 0.7071067811865476 0 -0.7071067811865476
usemtl m_074a73a8-5b8d-cf67-56c4-8b12a688c86f
f 33/85/23 31/86/23 32/87/23 34/88/23
f 31/89/24 29/90/24 32/91/24
f 30/92/25 33/93/25 34/94/25
f 30/95/26 29/96/26 31/97/26 33/98/26
f 32/99/27 29/100/27 30/101/27 34/102/27
o крыло2-верхнее
v 1.8125 0.8125 1.5
v 1.8125 0.6875 1.5
v 0.8125 0.5 1.5
v 0.8125 0.5 0.5
v 0.8125 0.375 1.5
v 0.8125 0.375 0.5
vt 0.9140625 0.71875
vt 0.9140625 0.734375
vt 0.7890625 0.734375
vt 0.7890625 0.71875
vt 0.375 0.6034132812499999
vt 0.375 0.734375
vt 0.25 0.6034132812499999
vt 0.3828125 0.7325234375
vt 0.3828125 0.6015625
vt 0.5078125 0.6015625
vt 0.8678379087030013 0.8359375
vt 0.8724984554707504 0.8515625
vt 0.7415370912969987 0.8515625
vt 0.7368765445292496 0.8359375
vt 0.6875 0.10020903238336798
vt 0.6875 0.28125
vt 0.671875 0.27787865499154607
vt 0.671875 0.09683768737491405
vn -1 0 0
vn -0.2982749931359468 0.9544799780350297 0
vn 0.2982749931359468 -0.9544799780350297 0
vn 0 0 1
vn 0.7071067811865476 0 -0.7071067811865476
usemtl m_074a73a8-5b8d-cf67-56c4-8b12a688c86f
f 39/103/28 37/104/28 38/105/28 40/106/28
f 37/107/29 35/108/29 38/109/29
f 36/110/30 39/111/30 40/112/30
f 36/113/31 35/114/31 37/115/31 39/116/31
f 38/117/32 35/118/32 36/119/32 40/120/32
o предкрыльник1
v -0.5 0.5 1.5
v -0.5 0.5 0.5
v -0.5 0 1.5
v -0.5 0 0.5
v -0.8093750000000001 0.5 1.5
v -0.8093750000000001 0.5 0.5
v -0.8093750000000001 0 1.5
v -0.8093750000000001 0 0.5
vt 0.5546875 0.4453125
vt 0.4296875 0.4453125
vt 0.4296875 0.3828125
vt 0.5546875 0.3828125
vt 0.6875 0.3828125
vt 0.6875 0.4453125
vt 0.5625 0.4453125
vt 0.5625 0.3828125
vt 0.34375 0.234375
vt 0.3828125 0.234375
vt 0.3828125 0.359375
vt 0.34375 0.359375
vt 0.15625 0.2109375
vt 0.15625 0.3359375
vt 0.1171875 0.3359375
vt 0.1171875 0.2109375
vt 0.796875 0.1875
vt 0.796875 0.25
vt 0.7578125 0.25
vt 0.7578125 0.1875
vt 0.8046875 0.6484375
vt 0.765625 0.6484375
vt 0.765625 0.5859375
vt 0.8046875 0.5859375
vn 1 0 0
vn -1 0 0
vn 0 1 0
vn 0 -1 0
vn 0 0 1
vn 0 0 -1
usemtl m_074a73a8-5b8d-cf67-56c4-8b12a688c86f
f 42/121/33 41/122/33 43/123/33 44/124/33
f 47/125/34 45/126/34 46/127/34 48/128/34
f 45/129/35 41/130/35 42/131/35 46/132/35
f 44/133/36 43/134/36 47/135/36 48/136/36
f 43/137/37 41/138/37 45/139/37 47/140/37
f 46/141/38 42/142/38 44/143/38 48/144/38
o предкрыльник2
v 0.8062500000000001 0.5 1.5
v 0.8062500000000001 0.5 0.5
v 0.8062500000000001 0 1.5
v 0.8062500000000001 0 0.5
v 0.49687500000000007 0.5 1.5
v 0.49687500000000007 0.5 0.5
v 0.49687500000000007 0 1.5
v 0.49687500000000007 0 0.5
vt 0.4140625 0.4296875
vt 0.2890625 0.4296875
vt 0.2890625 0.3671875
vt 0.4140625 0.3671875
vt 0.703125 0.671875
vt 0.703125 0.734375
vt 0.578125 0.734375
vt 0.578125 0.671875
vt 0.1640625 0.203125
vt 0.203125 0.203125
vt 0.203125 0.328125
vt 0.1640625 0.328125
vt 0.4296875 0.1953125
vt 0.4296875 0.3203125
vt 0.390625 0.3203125
vt 0.390625 0.1953125
vt 0.3828125 0.1640625
vt 0.3828125 0.2265625
vt 0.34375 0.2265625
vt 0.34375 0.1640625
vt 0.4765625 0.2265625
vt 0.4375 0.2265625
vt 0.4375 0.1640625
vt 0.4765625 0.1640625
vn 1 0 0
vn -1 0 0
vn 0 1 0
vn 0 -1 0
vn 0 0 1
vn 0 0 -1
usemtl m_074a73a8-5b8d-cf67-56c4-8b12a688c86f
f 50/145/39 49/146/39 51/147/39 52/148/39
f 55/149/40 53/150/40 54/151/40 56/152/40
f 53/153/41 49/154/41 50/155/41 54/156/41
f 52/157/42 51/158/42 55/159/42 56/160/42
f 51/161/43 49/162/43 53/163/43 55/164/43
f 54/165/44 50/166/44 52/167/44 56/168/44
o часть предкрыльника1
v -0.5 0.5 0.5
v -0.5 0.25 0
v -0.5 0 0.5
v -0.5 0 0
v -0.8 0.5 0.5
v -0.5625 0.25 0
v -0.8125 0 0.5
v -0.5625 0 0
vt 0.78125 0.796875
vt 0.71875 0.828125
vt 0.71875 0.765625
vt 0.78125 0.765625
vt 0.30390625 0.734375
vt 0.26640625 0.734375
vt 0.26640625 0.6640625
vt 0.27421875 0.6640625
vt 0.375 0.796875
vt 0.375 0.859375
vt 0.3359375 0.859375
vt 0.3671875 0.796875
vt 0.8203125 0.90625
vt 0.8203125 0.96875
vt 0.7828125 0.96875
vt 0.78125 0.90625
vt 0.2734375 0.921875
vt 0.265625 0.921875
vt 0.265625 0.890625
vt 0.2734375 0.890625
vt 0.5078125 0.23435562909560548
vt 0.5078125 0.296875
vt 0.4378419959567893 0.2663764458344805
vt 0.4375 0.2351361302382723
vn 1 0 0
vn 0 0.8944271909999161 -0.44721359549995804
vn 0 -1 0
vn 0 0 1
vn 0 0 -1
vn -0.8986495300827688 0.02246623825206924 -0.4380916459153498
usemtl m_074a73a8-5b8d-cf67-56c4-8b12a688c86f
f 58/169/45 57/170/45 59/171/45 60/172/45
f 61/173/46 57/174/46 58/175/46 62/176/46
f 60/177/47 59/178/47 63/179/47 64/180/47
f 59/181/48 57/182/48 61/183/48 63/184/48
f 62/185/49 58/186/49 60/187/49 64/188/49
f 63/189/50 61/190/50 62/191/50 64/192/50
o часть части предкрыльника1
v -0.7749999999999999 0.4375 0.4375
v -0.5874999999999999 0.1875 0.0625
v -0.7749999999999999 0.0625 0.4375
v -0.5874999999999999 0.0625 0.0625
v -0.825 0.4375 0.4375
v -0.6499999999999999 0.1875 0.0625
v -0.8374999999999999 0.0625 0.4375
v -0.6499999999999999 0.0625 0.0625
vt 0.0546875 0.3671875
vt 0 0.3984375
vt 0 0.3515625
vt 0.0546875 0.3515625
vt 0.27780322117734824 0.2051669442978432
vt 0.2754025573340946 0.2109375
vt 0.2143842788226518 0.2109375
vt 0.21738510862671884 0.2037243053723039
vt 0.421875 0.71875
vt 0.421875 0.7711578432226514
vt 0.4140625 0.7746516994374948
vt 0.4140625 0.7222438562148434
vt 0.140625 0.5703125
vt 0.140625 0.6171875
vt 0.134375 0.6171875
vt 0.1328125 0.5703125
vt 0.3203125 0.859375
vt 0.3125 0.859375
vt 0.3125 0.84375
vt 0.3203125 0.84375
vt 0.796875 0.3593488785672412
vt 0.796875 0.40625
vt 0.742416175810938 0.3757465580683106
vt 0.7421875 0.3601302635254471
vn 0.8944271909999161 0 0.44721359549995804
vn 0 0.8320502943378437 -0.5547001962252291
vn 0 -1 0
vn 0 0 1
vn 0 0 -1
vn -0.8979818088466005 0.02993272696155338 -0.4390133287694492
usemtl m_074a73a8-5b8d-cf67-56c4-8b12a688c86f
f 66/193/51 65/194/51 67/195/51 68/196/51
f 69/197/52 65/198/52 66/199/52 70/200/52
f 68/201/53 67/202/53 71/203/53 72/204/53
f 67/205/54 65/206/54 69/207/54 71/208/54
f 70/209/55 66/210/55 68/211/55 72/212/55
f 71/213/56 69/214/56 70/215/56 72/216/56
o часть части предкрыльника2
v 0.8187500000000002 0.4375 0.4375
v 0.6312500000000002 0.1875 0.0625
v 0.8187500000000002 0.0625 0.4375
v 0.6375000000000002 0.0625 0.0625
v 0.7687500000000003 0.4375 0.4375
v 0.5687500000000002 0.1875 0.0625
v 0.7562500000000002 0.0625 0.4375
v 0.5687500000000002 0.0625 0.0625
vt 0.7477203125 0.21875
vt 0.6953125 0.25
vt 0.6953125 0.203125
vt 0.74737109375 0.203125
vt 0.2560702083883088 0.7007243361567463
vt 0.25029965268615195 0.703125
vt 0.25029965268615195 0.6421067214885572
vt 0.25751284731384805 0.6391058916844902
vt 0.7961507917733431 0.703125
vt 0.8482139389031749 0.703125
vt 0.8448141837427039 0.7102341023805923
vt 0.7924110610968251 0.7109375
vt 0.40625 0.734375
vt 0.40625 0.78125
vt 0.4 0.78125
vt 0.3984375 0.734375
vt 0.3359375 0.734375
vt 0.32890625 0.734375
vt 0.328125 0.71875
vt 0.3359375 0.71875
vt 0.5164061010003411 0.203125
vt 0.5633068021315776 0.203125
vt 0.5312411743317456 0.2578125
vt 0.515625 0.2575757572778148
vn 0.8944271909999161 -8.826788100434751e-17 -0.44721359549995804
vn 0 0.8320502943378437 -0.5547001962252291
vn 0 -1 0
vn 0 0 1
vn 0 0 -1
vn -0.8900427175814678 0.02966809058604895 0.4549107223194168
usemtl m_074a73a8-5b8d-cf67-56c4-8b12a688c86f
f 74/217/57 73/218/57 75/219/57 76/220/57
f 77/221/58 73/222/58 74/223/58 78/224/58
f 76/225/59 75/226/59 79/227/59 80/228/59
f 75/229/60 73/230/60 77/231/60 79/232/60
f 78/233/61 74/234/61 76/235/61 80/236/61
f 79/237/62 77/238/62 78/239/62 80/240/62
o часть предкрыльника2
v 0.80625 0.5 0.5
v 0.55625 0.25 0
v 0.80625 0 0.5
v 0.55625 0 0
v 0.5 0.5 0.5
v 0.5 0.25 0
v 0.5 0 0.5
v 0.5 0 0
vt 0.78125 0.7265625
vt 0.7109375 0.7578125
vt 0.7109375 0.6953125
vt 0.78125 0.6953125
vt 0.2734375 0.21875
vt 0.2734375 0.28125
vt 0.2109375 0.25
vt 0.2109375 0.21875
vt 0.4375 1
vt 0.3984375 1
vt 0.4296875 0.9296875
vt 0.4375 0.9296875
vt 0.163671875 0.4921875
vt 0.194921875 0.5546875
vt 0.156640625 0.5546875
vt 0.156640625 0.4921875
vt 0.8203125 0.515625
vt 0.8203125 0.578125
vt 0.78125 0.578125
vt 0.78125 0.515625
vt 0.3203125 0.734375
vt 0.3125 0.734375
vt 0.3125 0.703125
vt 0.3203125 0.703125
vn 0.8944271909999161 0 -0.44721359549995804
vn -1 0 0
vn 0 0.8944271909999161 -0.44721359549995804
vn 0 -1 0
vn 0 0 1
vn 0 0 -1
usemtl m_074a73a8-5b8d-cf67-56c4-8b12a688c86f
f 82/241/63 81/242/63 83/243/63 84/244/63
f 87/245/64 85/246/64 86/247/64 88/248/64
f 85/249/65 81/250/65 82/251/65 86/252/65
f 84/253/66 83/254/66 87/255/66 88/256/66
f 83/257/67 81/258/67 85/259/67 87/260/67
f 86/261/68 82/262/68 84/263/68 88/264/68
o нос корабля
v 0.25 0.0625 -1.3125
v 0.5 0 -0.3125
v 0.25 0 -1.3125
v -0.25 0.0625 -1.3125
v -0.5 0 -0.3125
v -0.25 0 -1.3125
v 0.5 0.5 -0.3125
v -0.5 0.5 -0.3125
vt 0.1953125 0.3515625
vt 0.0703125 0.40625
vt 0.0703125 0.34375
vt 0.1953125 0.34375
vt 0.734375 0.328125
vt 0.734375 0.390625
vt 0.609375 0.3359375
vt 0.609375 0.328125
vt 0.546875 0.65625
vt 0.578125 0.78125
vt 0.453125 0.78125
vt 0.484375 0.65625
vt 0.7109375 0.765625
vt 0.7109375 0.828125
vt 0.5859375 0.828125
vt 0.5859375 0.765625
vt 0.25 0.375
vt 0.1875 0.375
vt 0.1875 0.3671875
vt 0.25 0.3671875
vt 0.390625 1
vt 0.265625 1
vt 0.296875 0.8671875
vt 0.359375 0.8671875
vn 0.9701425001453319 0 -0.24253562503633297
vn -0.9701425001453319 0 -0.24253562503633297
vn 0 -1 0
vn 0 0 1
vn 0 0 -1
vn 0 0.9161573349021892 -0.4008188340197078
usemtl m_074a73a8-5b8d-cf67-56c4-8b12a688c86f
f 89/265/69 95/266/69 90/267/69 91/268/69
f 93/269/70 96/270/70 92/271/70 94/272/70
f 91/273/71 90/274/71 93/275/71 94/276/71
f 90/277/72 95/278/72 96/279/72 93/280/72
f 92/281/73 89/282/73 91/283/73 94/284/73
f 96/285/74 95/286/74 89/287/74 92/288/74
o хвост
v 0 1.0625 2.375
v 0.3125 0.75 1.25
v 0.25 0.5 1.5
v 0.25 0.5 1.25
v -0.3125 0.75 1.25
v -0.25 0.5 1.5
v -0.25 0.5 1.25
vt 0.3359375 0.20828804248317967
vt 0.3359375 0.359375
vt 0.296875 0.23131495586709883
vt 0.30483943613726516 0.2022289332429319
vt 0.7243985226241669 0.40679035727688306
vt 0.8524585667570681 0.4453125
vt 0.7013716092402478 0.4453125
vt 0.6953125 0.4147547934141481
vt 0.14710935077389278 0.5546875
vt 0.07164064922610719 0.4238000351812611
vt 0.1471093507738928 0.4036012552257475
vt 0.0625 0.1796875
vt 0.0625 0.2109375
vt 0 0.2109375
vt 0 0.1796875
vt 0.06163477829597273 0.53125
vt 0.0008652217040272733 0.41212683986188414
vt 0.06163477829597269 0.39752166983143455
vt 0.8203125 0.34375
vt 0.7421875 0.34375
vt 0.75 0.3125
vt 0.8125 0.3125
vn 0.9647931954780209 0.020973765119087412 0.2621720639885926
vn -0.9647931954780209 0.020973765119087412 0.2621720639885926
vn 0 0.9635179096299408 -0.26764386378609467
vn 0 -1 0
vn 0 0.8411784753765538 -0.5407575913134988
vn 0 0 -1
usemtl m_074a73a8-5b8d-cf67-56c4-8b12a688c86f
f 98/289/75 97/290/75 99/291/75 100/292/75
f 102/293/76 97/294/76 101/295/76 103/296/76
f 97/297/77 98/298/77 101/299/77
f 100/300/78 99/301/78 102/302/78 103/303/78
f 97/304/79 99/305/79 102/306/79
f 101/307/80 98/308/80 100/309/80 103/310/80
o стекло1
v 0.43125 0.5249999999999999 -0.3125
v 0.24375 0.3125 -0.8125
v 0.43125 0.4625 -0.3125
v 0.24375 0.25 -0.8125
v -0.44375 0.5249999999999999 -0.3125
v -0.25625 0.3125 -0.8125
v -0.44375 0.4625 -0.3125
v -0.25625 0.25 -0.8125
vt 0.140625 0.6312840026081903
vt 0.140625 0.703125
vt 0.1328125 0.7002364052033796
vt 0.1328125 0.62839540781157
vt 0.2314864052033796 0.3828125
vt 0.234375 0.390625
vt 0.16253400260819034 0.390625
vt 0.15964540781156997 0.3828125
vt 0.53125 0.375
vt 0.421875 0.375
vt 0.4453125 0.3046875
vt 0.5078125 0.3046875
vt 0.2890625 0.2890625
vt 0.3125 0.359375
vt 0.203125 0.359375
vt 0.2265625 0.2890625
vt 0.671875 0.65625
vt 0.671875 0.6640625
vt 0.5625 0.6640625
vt 0.5625 0.65625
vt 0.421875 0.5234375
vt 0.359375 0.5234375
vt 0.359375 0.515625
vt 0.421875 0.515625
vn 0.9363291775690445 0 -0.35112344158839187
vn -0.9363291775690445 0 -0.3511234415883917
vn 0 0.9203309184584746 -0.3911406403448517
vn 0 -0.9203309184584746 0.3911406403448517
vn 0 0 1
vn 0 0 -1
usemtl m_074a73a8-5b8d-cf67-56c4-8b12a688c86f
f 105/311/81 104/312/81 106/313/81 107/314/81
f 110/315/82 108/316/82 109/317/82 111/318/82
f 108/319/83 104/320/83 105/321/83 109/322/83
f 107/323/84 106/324/84 110/325/84 111/326/84
f 106/327/85 104/328/85 108/329/85 110/330/85
f 109/331/86 105/332/86 107/333/86 111/334/86
o стекло2
v -0.44375 0.516345148057186 -0.31989853865045975
v -0.25625 0.7321383476483185 0.18391504294495534
v -0.44375 0.47215097423302677 -0.27570436482630056
v -0.25625 0.6754441738241592 0.22810921676911458
v 0.43125 0.5163451480571859 -0.3198985386504597
v 0.24375 0.7321383476483184 0.18391504294495534
v 0.43125 0.47215097423302665 -0.2757043648263005
v 0.24374999999999997 0.6754441738241592 0.22810921676911458
vt 0.4375 0.7088412053681388
vt 0.4375 0.78125
vt 0.43108615426430125 0.7785032458085038
vt 0.4296875 0.7066765907545873
vt 0.49725324580850383 0.461436280176169
vt 0.5 0.46875
vt 0.4275912053681387 0.46875
vt 0.42542659075458733 0.4600376259118678
vt 0.109375 0.3359375
vt 0 0.3359375
vt 0.0234375 0.265625
vt 0.0859375 0.265625
vt 0.75 0.5078125
vt 0.7734375 0.578125
vt 0.6640625 0.578125
vt 0.6875 0.5078125
vt 0.6953125 0.75
vt 0.6953125 0.7578125
vt 0.5859375 0.7578125
vt 0.5859375 0.75
vt 0.6484375 0.375
vt 0.5859375 0.375
vt 0.5859375 0.3671875
vt 0.6484375 0.3671875
vn -0.9383233385550049 0.24448856038983716 0.2444885603898369
vn 0.9383233385550048 0.2444885603898369 0.244488560389837
vn 1.3390565774270002e-16 0.9192288450942776 -0.3937236725758821
vn -1.3398117421542968e-16 -0.927350432563124 0.3741940341921379
vn -5.438745217582753e-17 -0.7071067811865477 -0.7071067811865475
vn 3.891659121093579e-17 0.6147958080093078 0.7886863219646848
usemtl m_074a73a8-5b8d-cf67-56c4-8b12a688c86f
f 113/335/87 112/336/87 114/337/87 115/338/87
f 118/339/88 116/340/88 117/341/88 119/342/88
f 116/343/89 112/344/89 113/345/89 117/346/89
f 115/347/90 114/348/90 118/349/90 119/350/90
f 114/351/91 112/352/91 116/353/91 118/354/91
f 117/355/92 113/356/92 115/357/92 119/358/92
o крыло-хвоста1
v -0.1875 0.75 1.5
v -0.1875 0.4375 1.5
v -0.25 0.75 1
v -0.9375 0.8125 1.625
v -0.25 0.4375 1
vt 0.0625 1
vt 0 1
vt 0 0.9375
vt 0.0625 0.9375
vt 0.0625 0.9375
vt 0 1
vt 0 0.9375
vt 0 0.9375
vt 0.0625 0.9375
vt 0 1
vt 0.0625 1
vt 0 1
vt 0 0.9375
vt 0.0625 0.9375
vt 0.0625 1
vt 0 0.9375
vn 0.9922778767136677 0 -0.12403473458920847
vn -0.6726727939963125 0 -0.7399400733959437
vn 0.08135780198188756 0.9966330742781226 -0.010169725247735946
vn -0.43920405387212597 -0.8967082766555905 0.054900506734015746
vn 0.1643989873053573 0 0.9863939238321437
usemtl m_074a73a8-5b8d-cf67-56c4-8b12a688c86f
f 122/359/93 120/360/93 121/361/93 124/362/93
f 123/363/94 122/364/94 124/365/94
f 123/366/95 120/367/95 122/368/95
f 121/369/96 123/370/96 124/371/96
f 121/372/97 120/373/97 123/374/97
o крыло-хвоста2
v 0.25 0.75 1
v 0.9375 0.8125 1.625
v 0.25 0.4375 1
v 0.1875 0.75 1.5
v 0.1875 0.4375 1.5
vt 0 0.9375
vt 0.0625 1
vt 0.0625 0.9375
vt 0.0625 0.9375
vt 0.0625 1
vt 0 1
vt 0 0.9375
vt 0.0625 0.9375
vt 0.0625 1
vt 0 0.9375
vt 0.0625 1
vt 0 1
vt 0.0625 0.9375
vt 0 1
vt 0.0625 0.9375
vt 0 0.9375
vn -0.6726727939963125 0 0.7399400733959437
vn -0.9922778767136677 0 -0.12403473458920847
vn -0.08135780198188756 0.9966330742781226 -0.010169725247735946
vn 0.43920405387212597 -0.8967082766555905 0.054900506734015746
vn 0.1643989873053573 0 -0.9863939238321437
usemtl m_074a73a8-5b8d-cf67-56c4-8b12a688c86f
f 126/375/98 125/376/98 127/377/98
f 129/378/99 128/379/99 125/380/99 127/381/99
f 126/382/100 125/383/100 128/384/100
f 126/385/101 129/386/101 127/387/101
f 128/388/102 126/389/102 129/390/102
o фара2
v 0.75 0.4375 1.5125
v 0.7374999999999998 0.4375 1.45
v 0.6875 0.125 1.5125
v 0.675 0.125 1.45
v 0.1875 0.375 1.5125
v 0.1875 0.375 1.45
v 0.1875 0.0625 1.5125
v 0.1875 0.0625 1.45
vt 0.5 0.532803125
vt 0.46875 0.532803125
vt 0.490846875 0.375
vt 0.5 0.37809375
vt 0.28125 0.34375
vt 0.28125 0.5
vt 0.25 0.5
vt 0.25 0.34375
vt 0.375 0.59375
vt 0.6579813977721927 0.59375
vt 0.6269204160119216 0.625
vt 0.375 0.6246185678029303
vt 0.15625 0.65625
vt 0.125 0.65625
vt 0.125 0.40625
vt 0.15625 0.40625
vt 0.44555406310024914 0.848156651647086
vt 0.4938678557579945 1
vt 0.21088707019120026 1
vt 0.19363214424200545 0.8447056664572471
vt 0.34375 0.5605544453656703
vt 0.34375 0.8125
vt 0.1875 0.7931195727204362
vt 0.1875 0.5411740180861064
vn 0.9622504486493759 -0.1924500897298752 -0.19245008972987795
vn -1 0 0
vn -0.11040460140637987 0.9936414126574187 0.022080920281276284
vn 0.12399658766086072 -0.9919727012868857 -0.02479931753217217
vn 0 0 1
vn 0 0 -1
usemtl m_f976b8d2-447b-36da-4b8a-9e29a3958820
f 131/391/103 130/392/103 132/393/103 133/394/103
f 136/395/104 134/396/104 135/397/104 137/398/104
f 134/399/105 130/400/105 131/401/105 135/402/105
f 133/403/106 132/404/106 136/405/106 137/406/106
f 132/407/107 130/408/107 134/409/107 136/410/107
f 135/411/108 131/412/108 133/413/108 137/414/108
o фара1
v -0.1875 0.375 1.5125
v -0.1875 0.375 1.45
v -0.1875 0.0625 1.5125
v -0.1875 0.0625 1.45
v -0.75 0.4375 1.5125
v -0.7374999999999998 0.4375 1.45
v -0.6875 0.125 1.5125
v -0.6812499999999999 0.125 1.45
vt 0.21875 0.5
vt 0.1875 0.5
vt 0.1875 0.34375
vt 0.21875 0.34375
vt 0.415403125 0.375
vt 0.4375 0.532803125
vt 0.393303125 0.532803125
vt 0.393303125 0.37809375
vt 0 0.65625
vt 0 0.375
vt 0.03125 0.375
vt 0.03125 0.62519375
vt 0.0625 0.40625
vt 0.09375 0.40625
vt 0.09375 0.65625
vt 0.0625 0.65625
vt 0 0.699764288484011
vt 0.15625 0.7170192144332057
vt 0.15625 1
vt 0.0034509851898388844 0.9516862073422546
vt 0.6512879909569467 0.8125
vt 0.39934243632261707 0.8125
vt 0.3799620090430533 0.65625
vt 0.631907563677383 0.65625
vn 1 0 0
vn -0.9622504486493759 -0.1924500897298752 -0.19245008972987795
vn 0.11043152607484656 0.993883734673619 0
vn -0.12403473458920847 -0.9922778767136677 0
vn 0 0 1
vn 0 0 -1
usemtl m_f976b8d2-447b-36da-4b8a-9e29a3958820
f 139/415/109 138/416/109 140/417/109 141/418/109
f 144/419/110 142/420/110 143/421/110 145/422/110
f 142/423/111 138/424/111 139/425/111 143/426/111
f 141/427/112 140/428/112 144/429/112 145/430/112
f 140/431/113 138/432/113 142/433/113 144/434/113
f 143/435/114 139/436/114 141/437/114 145/438/114