# Made in Blockbench 5.0.3
mtllib MagnetPickup.mtl

o cuboid
v 0 0.15625 0.078125
v 0 0.15625 -0.078125
v 0 -0.046875 -0.078125
v 0 -0.046875 0.078125
v 0.375 0.25 0.078125
v 0.375 0.25 -0.078125
v 0.375 0.1875 0.078125
v 0.375 0.1875 -0.078125
v 0.1875 0 0.078125
v 0.1875 0 -0.078125
v 0.1875 0.25 -0.078125
v 0.1875 0.25 0.078125
v 0.1875 0.6875 0.078125
v 0.1875 0.6875 -0.078125
v 0.1875 0.25 0.078125
v 0.1875 0.25 -0.078125
v 0.375 0.6875 0.078125
v 0.375 0.6875 -0.078125
v 0.375 0.25 0.078125
v 0.375 0.25 -0.078125
v -0.375 0.25 0.078125
v -0.375 0.25 -0.078125
v -0.375 0.1875 0.078125
v -0.375 0.1875 -0.078125
v -0.1875 0 0.078125
v -0.1875 0 -0.078125
v -0.1875 0.25 -0.078125
v -0.1875 0.25 0.078125
v -0.1875 0.6875 0.078125
v -0.1875 0.6875 -0.078125
v -0.375 0.6875 0.078125
v -0.375 0.6875 -0.078125
vt 0.09375 0.875
vt 0 0.875
vt 0 0.84375
vt 0.09375 0.84375
vt 0.0003265624999999883 0.390625
vt 0.10514218749999998 0.390625
vt 0.1051421875 0.46875
vt 0.0003265625000000022 0.46875
vt 0.546875 0.5517578125
vt 0.546875 0.6483921875
vt 0.46875 0.6483921875
vt 0.46875 0.5517578125
vt 0.1875 0.8515625
vt 0.28125 0.875
vt 0.28125 1
vt 0.1875 0.953125
vt 0.1875 0.796875
vt 0.09375 0.84375
vt 0.09375 0.71875
vt 0.1875 0.6953125
vt 0.46875 0.7809765625
vt 0.46875 0.6483921875
vt 0.546875 0.6483921875
vt 0.546875 0.7809765625
vt 0 0.8125
vt 0.09375 0.71875
vt 0.09375 0.84375
vt 0 0.84375
vt 0.1988921875 0.46875
vt 0.1051421875 0.46875
vt 0.1051421875 0.390625
vt 0.1988921875 0.390625
vt 0.375 1
vt 0.28125 1
vt 0.28125 0.875
vt 0.375 0.96875
vt 0.09375 0.5
vt 0.09375 0.71875
vt 0 0.71875
vt 0 0.5
vt 0.1875 0.6875
vt 0.09375 0.6875
vt 0.09375 0.46875
vt 0.1875 0.46875
vt 0.21875 0.46875
vt 0.21875 0.375
vt 0.3125 0.375
vt 0.3125 0.46875
vt 0.65625 0.90625
vt 0.5625 0.90625
vt 0.5625 0.8125
vt 0.65625 0.8125
vt 0.28125 0.6875
vt 0.1875 0.6875
vt 0.1875 0.46875
vt 0.28125 0.46875
vt 0.375 0.46875
vt 0.375 0.6875
vt 0.28125 0.6875
vt 0.28125 0.46875
vt 0.09375 0.46875
vt 0.09375 0.5
vt 0 0.5
vt 0 0.46875
vt 0.6565765625 1
vt 0.6565765625 0.921875
vt 0.7613921875 0.921875
vt 0.7613921875 1
vt 0.546875 0.39839218750000005
vt 0.46875 0.39839218750000005
vt 0.46875 0.3017578125
vt 0.546875 0.3017578125
vt 0.09375 1
vt 0.09375 0.875
vt 0.1875 0.8515625
vt 0.1875 0.953125
vt 0.28125 0.71875
vt 0.28125 0.84375
vt 0.1875 0.796875
vt 0.1875 0.6953125
vt 0.46875 0.39839218750000005
vt 0.546875 0.39839218750000005
vt 0.546875 0.5309765625
vt 0.46875 0.5309765625
vt 0.28125 0.84375
vt 0.28125 0.71875
vt 0.375 0.8125
vt 0.375 0.84375
vt 0.6565765625 0.921875
vt 0.6565765625 1
vt 0.5628265625 1
vt 0.5628265625 0.921875
vt 0.09375 0.875
vt 0.09375 1
vt 0 1
vt 0 0.96875
vt 0.46875 1
vt 0.375 1
vt 0.375 0.78125
vt 0.46875 0.78125
vt 0.46875 0.5625
vt 0.46875 0.78125
vt 0.375 0.78125
vt 0.375 0.5625
vt 0.5625 0.71875
vt 0.65625 0.71875
vt 0.65625 0.8125
vt 0.5625 0.8125
vt 0.65625 0.625
vt 0.65625 0.71875
vt 0.5625 0.71875
vt 0.5625 0.625
vt 0.46875 0.34375
vt 0.46875 0.5625
vt 0.375 0.5625
vt 0.375 0.34375
vt 0.5625 1
vt 0.46875 1
vt 0.46875 0.78125
vt 0.5625 0.78125
vn 1 0 0
vn -0.447213595499958 0.894427190999916 0
vn 0.24253562503633297 -0.9701425001453319 0
vn 0 0 1
vn 0 0 -1
vn 0.7071067811865476 -0.7071067811865476 0
vn 0 0 -1
vn 0 1 0
vn 0 0 1
vn -1 0 0
vn 1 0 0
vn 0 1 0
vn 0 -1 0
vn 0 0 1
vn 0 0 -1
vn -1 0 0
vn 0.447213595499958 0.894427190999916 0
vn -0.24253562503633297 -0.9701425001453319 0
vn 0 0 1
vn 0 0 -1
vn -0.7071067811865476 -0.7071067811865476 0
vn 0 0 -1
vn 0 1 0
vn 0 0 1
vn 1 0 0
vn -1 0 0
vn 0 1 0
vn 0 -1 0
vn 0 0 1
vn 0 0 -1
usemtl m_a382dde2-9550-0157-99c5-0e325def729b
f 6/1/1 5/2/1 7/3/1 8/4/1
f 1/5/2 12/6/2 11/7/2 2/8/2
f 3/9/3 10/10/3 9/11/3 4/12/3
f 4/13/4 9/14/4 12/15/4 1/16/4
f 2/17/5 11/18/5 10/19/5 3/20/5
f 7/21/6 9/22/6 10/23/6 8/24/6
f 8/25/7 10/26/7 11/27/7 6/28/7
f 6/29/8 11/30/8 12/31/8 5/32/8
f 5/33/9 12/34/9 9/35/9 7/36/9
f 15/37/10 13/38/10 14/39/10 16/40/10
f 18/41/11 17/42/11 19/43/11 20/44/11
f 14/45/12 13/46/12 17/47/12 18/48/12
f 19/49/13 15/50/13 16/51/13 20/52/13
f 17/53/14 13/54/14 15/55/14 19/56/14
f 16/57/15 14/58/15 18/59/15 20/60/15
f 23/61/16 21/62/16 22/63/16 24/64/16
f 27/65/17 28/66/17 1/67/17 2/68/17
f 25/69/18 26/70/18 3/71/18 4/72/18
f 28/73/19 25/74/19 4/75/19 1/76/19
f 26/77/20 27/78/20 2/79/20 3/80/20
f 26/81/21 25/82/21 23/83/21 24/84/21
f 27/85/22 26/86/22 24/87/22 22/88/22
f 28/89/23 27/90/23 22/91/23 21/92/23
f 25/93/24 28/94/24 21/95/24 23/96/24
f 30/97/25 29/98/25 28/99/25 27/100/25
f 21/101/26 31/102/26 32/103/26 22/104/26
f 31/105/27 29/106/27 30/107/27 32/108/27
f 27/109/28 28/110/28 21/111/28 22/112/28
f 28/113/29 29/114/29 31/115/29 21/116/29
f 32/117/30 30/118/30 27/119/30 22/120/30